<svg xmlns="http://www.w3.org/2000/svg" viewBox="0 0 1100 500"><style>text{font-family:'Noto Sans CJK SC',sans-serif}</style>
<defs><filter id="s1" x="-20%" y="-20%" width="140%" height="140%"><feDropShadow dx="0" dy="4" stdDeviation="7" flood-color="#00000022"/></filter><marker id="a1" markerWidth="10" markerHeight="8" refX="8" refY="4" orient="auto"><path d="M0,0 L9,4 L0,8 Z" fill="#B9B0A4"/></marker></defs>
<rect width="1100" height="500" fill="#FDF8EF"/>
<text x="550" y="56" font-size="30" font-weight="700" text-anchor="middle" fill="#333333">Week 1 跑通流水线</text>
<text x="550" y="90" font-size="15" text-anchor="middle" fill="#8a8a8a">五步走 · 全部有日志可查（命令见学习报告第 4 节）</text>
<g filter="url(#s1)"><rect x="45" y="145" width="178" height="185" rx="18" fill="#F4FBF7" stroke="#3ECF8E" stroke-width="2.5"/></g>
<circle cx="73" cy="173" r="16" fill="#2F6BDF"/>
<text x="73" y="179" font-size="17" font-weight="700" text-anchor="middle" fill="#ffffff">0</text>
<circle cx="197" cy="171" r="13" fill="#3ECF8E"/>
<path d="M192,171 l4,5 l9,-10" stroke="#ffffff" stroke-width="3" fill="none" stroke-linecap="round" stroke-linejoin="round"/>
<circle cx="134" cy="223" r="30" fill="#ffffff" stroke="#2F6BDF" stroke-width="2.5"/>
<circle cx="134" cy="223" r="13" fill="none" stroke="#2F6BDF" stroke-width="3.5"/>
<line x1="144" y1="233" x2="153" y2="242" stroke="#2F6BDF" stroke-width="4" stroke-linecap="round"/>
<text x="134" y="295" font-size="16" font-weight="700" text-anchor="middle" fill="#333333">环境核查</text>
<text x="134" y="317" font-size="12" text-anchor="middle" fill="#8a8a8a">env_check 全绿</text>
<g filter="url(#s1)"><rect x="255" y="145" width="178" height="185" rx="18" fill="#F4FBF7" stroke="#3ECF8E" stroke-width="2.5"/></g>
<circle cx="283" cy="173" r="16" fill="#2F6BDF"/>
<text x="283" y="179" font-size="17" font-weight="700" text-anchor="middle" fill="#ffffff">1</text>
<circle cx="407" cy="171" r="13" fill="#3ECF8E"/>
<path d="M402,171 l4,5 l9,-10" stroke="#ffffff" stroke-width="3" fill="none" stroke-linecap="round" stroke-linejoin="round"/>
<circle cx="344" cy="223" r="30" fill="#ffffff" stroke="#2F6BDF" stroke-width="2.5"/>
<rect x="327" y="221" width="34" height="14" rx="3" fill="none" stroke="#2F6BDF" stroke-width="3"/>
<line x1="344" y1="205" x2="344" y2="221" stroke="#2F6BDF" stroke-width="3.5"/>
<path d="M338,215 L344,221 L350,215" fill="none" stroke="#2F6BDF" stroke-width="3.5" stroke-linecap="round" stroke-linejoin="round"/>
<text x="344" y="295" font-size="16" font-weight="700" text-anchor="middle" fill="#333333">下载模型</text>
<text x="344" y="317" font-size="12" text-anchor="middle" fill="#8a8a8a">hf-mirror · 3 个</text>
<g filter="url(#s1)"><rect x="465" y="145" width="178" height="185" rx="18" fill="#F4FBF7" stroke="#3ECF8E" stroke-width="2.5"/></g>
<circle cx="493" cy="173" r="16" fill="#2F6BDF"/>
<text x="493" y="179" font-size="17" font-weight="700" text-anchor="middle" fill="#ffffff">2</text>
<circle cx="617" cy="171" r="13" fill="#3ECF8E"/>
<path d="M612,171 l4,5 l9,-10" stroke="#ffffff" stroke-width="3" fill="none" stroke-linecap="round" stroke-linejoin="round"/>
<circle cx="554" cy="223" r="30" fill="#ffffff" stroke="#2F6BDF" stroke-width="2.5"/>
<rect x="537" y="210" width="34" height="26" rx="4" fill="#ffffff" stroke="#2F6BDF" stroke-width="3"/>
<polyline points="544,217 550,223 544,229" fill="none" stroke="#2F6BDF" stroke-width="3" stroke-linecap="round" stroke-linejoin="round"/>
<line x1="556" y1="225" x2="565" y2="225" stroke="#2F6BDF" stroke-width="3" stroke-linecap="round"/>
<text x="554" y="295" font-size="16" font-weight="700" text-anchor="middle" fill="#333333">离线 LLM API</text>
<text x="554" y="317" font-size="12" text-anchor="middle" fill="#8a8a8a">test_vllms 双日志</text>
<g filter="url(#s1)"><rect x="675" y="145" width="178" height="185" rx="18" fill="#F4FBF7" stroke="#3ECF8E" stroke-width="2.5"/></g>
<circle cx="703" cy="173" r="16" fill="#2F6BDF"/>
<text x="703" y="179" font-size="17" font-weight="700" text-anchor="middle" fill="#ffffff">3</text>
<circle cx="827" cy="171" r="13" fill="#3ECF8E"/>
<path d="M822,171 l4,5 l9,-10" stroke="#ffffff" stroke-width="3" fill="none" stroke-linecap="round" stroke-linejoin="round"/>
<circle cx="764" cy="223" r="30" fill="#ffffff" stroke="#2F6BDF" stroke-width="2.5"/>
<rect x="747" y="210" width="34" height="24" rx="8" fill="#ffffff" stroke="#2F6BDF" stroke-width="3"/>
<path d="M756,234 L750,243 L766,236 Z" fill="#2F6BDF"/>
<circle cx="758" cy="221" r="2.2" fill="#2F6BDF"/><circle cx="764" cy="221" r="2.2" fill="#2F6BDF"/><circle cx="770" cy="221" r="2.2" fill="#2F6BDF"/>
<text x="764" y="295" font-size="16" font-weight="700" text-anchor="middle" fill="#333333">serve + curl</text>
<text x="764" y="317" font-size="12" text-anchor="middle" fill="#8a8a8a">端口 8001 · 对话 OK</text>
<g filter="url(#s1)"><rect x="885" y="145" width="178" height="185" rx="18" fill="#F6F6F2" stroke="#C4C4C4" stroke-width="2.5" stroke-dasharray="7 5"/></g>
<circle cx="913" cy="173" r="16" fill="#9A9A9A"/>
<text x="913" y="179" font-size="17" font-weight="700" text-anchor="middle" fill="#ffffff">4</text>
<circle cx="1037" cy="171" r="13" fill="#D8D8D4"/>
<path d="M1037,162 v9 h7" stroke="#ffffff" stroke-width="2.5" fill="none" stroke-linecap="round"/>
<circle cx="974" cy="223" r="30" fill="#ffffff" stroke="#9A9A9A" stroke-width="2.5"/>
<circle cx="974" cy="223" r="14" fill="none" stroke="#9A9A9A" stroke-width="3"/>
<line x1="974" y1="214" x2="974" y2="223" stroke="#9A9A9A" stroke-width="3"/>
<line x1="974" y1="223" x2="980" y2="228" stroke="#9A9A9A" stroke-width="3" stroke-linecap="round"/>
<text x="974" y="295" font-size="16" font-weight="700" text-anchor="middle" fill="#333333">27B benchmark</text>
<text x="974" y="317" font-size="12" text-anchor="middle" fill="#8a8a8a">vllm bench serve</text>
<line x1="232" y1="239" x2="252" y2="239" stroke="#B9B0A4" stroke-width="3" marker-end="url(#a1)"/>
<line x1="442" y1="239" x2="462" y2="239" stroke="#B9B0A4" stroke-width="3" marker-end="url(#a1)"/>
<line x1="652" y1="239" x2="672" y2="239" stroke="#B9B0A4" stroke-width="3" marker-end="url(#a1)"/>
<line x1="862" y1="239" x2="882" y2="239" stroke="#B9B0A4" stroke-width="3" marker-end="url(#a1)"/>
<text x="550" y="392" font-size="16" font-weight="700" text-anchor="middle" fill="#444444">第一次冷启动 ≈ 3.5 分钟，花在哪？</text>
<rect x="38" y="412" width="104" height="36" rx="18" fill="#F0ECE4" stroke="#777777" stroke-width="1.5"/>
<text x="90" y="434" font-size="13" font-weight="700" text-anchor="middle" fill="#777777">解析架构 &lt;1s</text>
<rect x="150" y="412" width="104" height="36" rx="18" fill="#F0ECE4" stroke="#777777" stroke-width="1.5"/>
<text x="202" y="434" font-size="13" font-weight="700" text-anchor="middle" fill="#777777">加载权重 0.4s</text>
<rect x="262" y="412" width="104" height="36" rx="18" fill="#E3EDFF" stroke="#2F6BDF" stroke-width="1.5"/>
<text x="314" y="434" font-size="13" font-weight="700" text-anchor="middle" fill="#2F6BDF">torch.compile 21s</text>
<rect x="404" y="412" width="104" height="36" rx="18" fill="#E3EDFF" stroke="#2F6BDF" stroke-width="1.5"/>
<text x="456" y="434" font-size="13" font-weight="700" text-anchor="middle" fill="#2F6BDF">kernel 预热 87s</text>
<rect x="546" y="412" width="104" height="36" rx="18" fill="#FFF3CE" stroke="#B07C00" stroke-width="1.5"/>
<text x="598" y="434" font-size="13" font-weight="700" text-anchor="middle" fill="#B07C00">CUDA graph 2s</text>
<rect x="688" y="412" width="104" height="36" rx="18" fill="#FFF3CE" stroke="#B07C00" stroke-width="1.5"/>
<text x="740" y="434" font-size="13" font-weight="700" text-anchor="middle" fill="#B07C00">多模态 warmup 21s</text>
<rect x="844" y="412" width="110" height="36" rx="18" fill="#DCF5E8" stroke="#189A63" stroke-width="1.5"/>
<text x="899" y="434" font-size="13" font-weight="700" text-anchor="middle" fill="#189A63">就绪 ✅</text>
<text x="550" y="478" font-size="13.5" text-anchor="middle" fill="#9a9a9a">JIT 编译 + kernel 预热是一次性的，有缓存后第二次启动快很多 —— 第一次慢不是卡死！</text>
</svg>